<svg aria-hidden="true" style="position: absolute; width: 0; height: 0; overflow: hidden;" version="1.1" xmlns="http://www.w3.org/2000/svg" xmlns:xlink="http://www.w3.org/1999/xlink">
<defs>
<symbol id="icon-envelope" viewBox="0 0 21 16">
<path d="M19.333 0h-17.333c-1.103 0-2 0.897-2 2v12c0 1.103 0.897 2 2 2h17.333c1.103 0 2-0.897 2-2v-12c0-1.103-0.897-2-2-2zM19.333 1.333c0.091 0 0.177 0.019 0.255 0.052l-8.922 7.733-8.922-7.733c0.079-0.033 0.165-0.052 0.256-0.052h17.333zM19.333 14.667h-17.333c-0.368 0-0.667-0.299-0.667-0.667v-11.206l8.896 7.71c0.126 0.109 0.281 0.163 0.437 0.163s0.311-0.054 0.437-0.163l8.896-7.71v11.206c0 0.368-0.299 0.667-0.667 0.667z"></path>
</symbol>
<symbol id="icon-Vector" viewBox="0 0 10 16">
<path d="M8.5 0h-7c-0.827 0-1.5 0.673-1.5 1.5v13c0 0.827 0.673 1.5 1.5 1.5h7c0.827 0 1.5-0.673 1.5-1.5v-13c0-0.827-0.673-1.5-1.5-1.5zM1.5 1h7c0.276 0 0.5 0.224 0.5 0.5v10.5h-8v-10.5c0-0.276 0.224-0.5 0.5-0.5zM8.5 15h-7c-0.276 0-0.5-0.224-0.5-0.5v-1.5h8v1.5c0 0.276-0.224 0.5-0.5 0.5z"></path>
</symbol>
</defs>
</svg>
