<svg aria-hidden="true" style="position: absolute; width: 0; height: 0; overflow: hidden;" version="1.1" xmlns="http://www.w3.org/2000/svg" xmlns:xlink="http://www.w3.org/1999/xlink">
<defs>
<symbol id="icon-envelope" viewBox="0 0 21 16">
<path d="M19.333 0h-17.333c-1.103 0-2 0.897-2 2v12c0 1.103 0.897 2 2 2h17.333c1.103 0 2-0.897 2-2v-12c0-1.103-0.897-2-2-2zM19.333 1.333c0.091 0 0.177 0.019 0.255 0.052l-8.922 7.733-8.922-7.733c0.079-0.033 0.165-0.052 0.256-0.052h17.333zM19.333 14.667h-17.333c-0.368 0-0.667-0.299-0.667-0.667v-11.206l8.896 7.71c0.126 0.109 0.281 0.163 0.437 0.163s0.311-0.054 0.437-0.163l8.896-7.71v11.206c0 0.368-0.299 0.667-0.667 0.667z"></path>
</symbol>
<symbol id="icon-Vector-2" viewBox="0 0 21 16">
<path stroke-linejoin="miter" stroke-linecap="butt" stroke-miterlimit="4" stroke-width="0.32" d="M3.131 7.603l-0.11-0.106-0.11 0.104-1.542 1.462 0.122 0.117 5.704 5.44 0.11-0.106 12.128-11.57-0.122-0.115-1.522-1.451-0.11 0.106-10.485 9.994-4.062-3.875z"></path>
</symbol>
</defs>
</svg>
